<svg width="512" height="512" viewBox="0 0 512 512" fill="none" xmlns="http://www.w3.org/2000/svg">
<path d="M505.6 256C505.6 393.85 393.851 505.6 256 505.6C118.15 505.6 6.40039 393.85 6.40039 256C6.40039 118.15 118.15 6.3999 256 6.3999C393.851 6.3999 505.6 118.15 505.6 256Z" fill="white"/>
<mask id="mask0_40_182312" style="mask-type:luminance" maskUnits="userSpaceOnUse" x="162" y="145" width="180" height="221">
<path d="M341.623 145.067H162.133V365.313H341.623V145.067Z" fill="white"/>
</mask>
<g mask="url(#mask0_40_182312)">
<path d="M341.623 316.668V362.968C341.623 364.262 340.578 365.307 339.284 365.307H164.472C163.178 365.307 162.133 364.262 162.133 362.968V294.306C162.133 289.184 162.663 284.685 163.723 280.505C164.877 276.116 166.593 272.147 168.862 268.677C171.177 265.129 174.179 261.925 177.766 259.102C181.072 256.521 184.939 254.151 189.251 252.046L209.539 242.51C211.091 241.777 212.877 242.915 212.877 244.631V311.99C212.877 313.284 213.921 314.329 215.216 314.329H339.292C340.586 314.329 341.631 315.382 341.631 316.668H341.623Z" fill="#3072FA"/>
<path d="M283.332 259.77L253.274 224.559C252.908 224.122 252.401 223.88 251.879 223.826C251.356 223.88 250.849 224.122 250.483 224.559L220.425 259.77C219.302 261.127 220.277 263.108 222.039 263.092H234.21C235.357 263.084 236.3 263.965 236.3 265.104V281.774C236.3 282.905 237.228 283.817 238.374 283.817H265.43C266.576 283.817 267.496 282.897 267.512 281.774V265.104C267.512 263.965 268.463 263.076 269.609 263.092H281.711C283.48 263.1 284.455 261.127 283.325 259.77H283.332Z" fill="#3072FA"/>
<path d="M341.623 185.94V218.314C341.623 223.351 341.116 227.951 340.118 231.998C339.081 236.349 337.335 240.458 334.941 244.092C332.586 247.624 329.6 250.844 326.052 253.604C322.832 256.123 318.879 258.532 314.341 260.738L294.209 270.173C292.657 270.898 290.879 269.768 290.879 268.052V197.683C290.879 196.389 289.834 195.344 288.54 195.344H212.877L164.48 195.539C163.185 195.539 162.133 194.494 162.133 193.2V185.94C162.133 180.373 163.209 175.009 165.33 170.05C167.474 165.06 170.421 160.686 174.172 157.029C177.883 153.434 182.171 150.51 186.99 148.405C192.043 146.191 197.399 145.076 202.959 145.076H300.813C306.372 145.076 311.752 146.206 316.781 148.405C321.608 150.526 325.935 153.458 329.6 157.107C333.264 160.74 336.173 165.075 338.317 169.98C340.524 175.017 341.654 180.397 341.654 185.964L341.623 185.94Z" fill="#3072FA"/>
</g>
<path fill-rule="evenodd" clip-rule="evenodd" d="M446.378 334.837L492.575 353.994C505.092 323.809 512 290.711 512 256C512 221.289 505.092 188.191 492.575 158.006C481.363 130.91 465.299 105.349 444.383 82.6512C440.746 78.7007 436.986 74.865 433.11 71.15L433.109 71.1518C409.489 48.5024 382.596 31.2605 353.993 19.426C323.809 6.90905 290.711 0 256 0C221.289 0 188.191 6.90846 158.006 19.4254L177.165 65.6253C126.796 86.5071 86.5073 126.796 65.6258 177.165L19.4254 158.006C6.90845 188.191 0 221.289 0 256C0 290.711 6.90815 323.808 19.4247 353.992C31.9175 384.187 50.4362 412.475 74.9809 437.02C99.5256 461.565 127.815 480.083 158.009 492.576C188.193 505.092 221.29 512 256 512C290.711 512 323.809 505.092 353.994 492.575L334.837 446.378C385.207 425.496 425.496 385.207 446.378 334.837ZM423.157 87.9761L375.422 116.213C343.296 88.7413 301.586 72.1515 256.002 72.1515C154.465 72.1515 72.1525 154.464 72.1525 256.001C72.1525 293.302 83.2608 328.008 102.35 356.992L140.714 334.299L87.4169 424.399L136.256 395.51C168.426 423.148 210.263 439.85 256.002 439.85C357.539 439.85 439.851 357.538 439.851 256.001C439.851 219.083 428.97 184.707 410.239 155.904L368.301 180.712L423.157 87.9761ZM177.164 446.376L177.13 446.362L159.37 489.287L177.164 446.376ZM65.6399 334.871L65.6251 334.835L21.1885 353.263L65.6399 334.871ZM334.836 65.6239L334.871 65.6386L353.111 21.5538L334.836 65.6239ZM446.378 177.163L446.363 177.129L488.923 159.52L446.378 177.163Z" fill="#3072FA"/>
</svg>
