<svg width="78" height="30" viewBox="0 0 78 30" fill="none" xmlns="http://www.w3.org/2000/svg">
<path d="M37.0255 29.892H31.9443C31.2022 29.892 30.4851 29.7481 29.8223 29.4592C29.1647 29.1755 28.5781 28.7776 28.0834 28.2759C27.5886 27.7742 27.1961 27.1794 26.9164 26.5126C26.6304 25.8374 26.4895 25.1145 26.4895 24.3609V0.317516C26.4895 0.142882 26.6304 0 26.8026 0H32.9579C33.1301 0 33.271 0.142882 33.271 0.317516V22.6982C33.271 22.8728 33.4119 23.0157 33.5841 23.0157H43.3822C43.5544 23.0157 43.6953 22.8728 43.6953 22.6982V0.317516C43.6953 0.142882 43.8362 0 44.0085 0H50.1606C50.3328 0 50.4737 0.142882 50.4737 0.317516V24.3609C50.4737 25.1166 50.3317 25.8405 50.0468 26.5126C49.7702 27.1731 49.3777 27.7647 48.883 28.2695C48.3757 28.7807 47.7922 29.1776 47.1409 29.4592C46.4781 29.7492 45.762 29.892 45.022 29.892H37.0266" fill="#3072FA"/>
<path d="M69.144 0H53.4162C53.2439 0 53.103 0.142882 53.103 0.317516V29.5745C53.103 29.7492 53.2439 29.892 53.4162 29.892H59.5714C59.7436 29.892 59.8845 29.7492 59.8845 29.5745V21.4324C59.8845 21.2577 60.0254 21.1148 60.1977 21.1148H69.144C74.5195 21.1148 77.4818 18.1058 77.4818 12.6435V8.47451C77.4818 3.009 74.5195 0 69.144 0ZM59.8845 7.19704C59.8845 7.0224 60.0254 6.87952 60.1977 6.87952H68.9227C69.9164 6.87952 70.6971 7.6712 70.6971 8.67878V12.4382C70.6971 13.4479 69.9164 14.2406 68.9227 14.2406H60.1977C60.0254 14.2406 59.8845 14.0977 59.8845 13.9231V7.1981V7.19704Z" fill="#3072FA"/>
<mask id="mask0_38467_15048" style="mask-type:luminance" maskUnits="userSpaceOnUse" x="0" y="0" width="25" height="30">
<path d="M24.028 0H0V29.8963H24.028V0Z" fill="white"/>
</mask>
<g mask="url(#mask0_38467_15048)">
<path d="M24.028 23.294V29.5788C24.028 29.7544 23.8882 29.8963 23.7149 29.8963H0.313137C0.139868 29.8963 0 29.7544 0 29.5788V20.2586C0 19.5632 0.0709777 18.9525 0.212933 18.3852C0.367414 17.7894 0.597048 17.2507 0.90079 16.7797C1.2108 16.2981 1.61265 15.8631 2.0928 15.48C2.53536 15.1296 3.05308 14.8079 3.6303 14.5221L6.34624 13.2277C6.55395 13.1282 6.79298 13.2828 6.79298 13.5156V22.659C6.79298 22.8347 6.93285 22.9765 7.10612 22.9765H23.7159C23.8892 22.9765 24.0291 23.1194 24.0291 23.294H24.028Z" fill="#3072FA"/>
<path d="M16.2245 15.5711L12.2007 10.7914C12.1517 10.7321 12.0838 10.6993 12.0139 10.6919C11.9439 10.6993 11.8761 10.7321 11.827 10.7914L7.80323 15.5711C7.65293 15.7552 7.7834 16.0241 8.0193 16.0219H9.64865C9.80209 16.0209 9.92839 16.1405 9.92839 16.295V18.5578C9.92839 18.7113 10.0526 18.8351 10.206 18.8351H13.828C13.9814 18.8351 14.1046 18.7102 14.1067 18.5578V16.295C14.1067 16.1405 14.234 16.0198 14.3875 16.0219H16.0074C16.2444 16.023 16.3748 15.7552 16.2235 15.5711H16.2245Z" fill="#3072FA"/>
<path d="M24.028 5.54921V9.94364C24.028 10.6274 23.9602 11.2518 23.8266 11.8011C23.6878 12.3917 23.4539 12.9495 23.1335 13.4427C22.8183 13.9221 22.4185 14.3592 21.9436 14.7339C21.5125 15.0758 20.9833 15.4028 20.3758 15.7023L17.6807 16.983C17.473 17.0814 17.2351 16.9279 17.2351 16.6951V7.14314C17.2351 6.96745 17.0952 6.82562 16.9219 6.82562H6.79298L0.314181 6.85208C0.140912 6.85208 0 6.71026 0 6.53457V5.54921C0 4.79352 0.144043 4.06535 0.427954 3.39221C0.714996 2.71485 1.10955 2.12109 1.61161 1.62471C2.10845 1.13679 2.68254 0.739894 3.3276 0.454129C4.00398 0.153547 4.72106 0.00219727 5.46528 0.00219727H18.5648C19.3091 0.00219727 20.0293 0.155664 20.7025 0.454129C21.3486 0.74201 21.9279 1.13996 22.4185 1.63529C22.9091 2.1285 23.2984 2.71696 23.5855 3.38269C23.8809 4.06641 24.0322 4.79669 24.0322 5.55238L24.028 5.54921Z" fill="#3072FA"/>
</g>
</svg>
